<?xml version="1.0" standalone="no"?>
<!DOCTYPE svg PUBLIC "-//W3C//DTD SVG 20010904//EN"
 "http://www.w3.org/TR/2001/REC-SVG-20010904/DTD/svg10.dtd">
<svg version="1.0" xmlns="http://www.w3.org/2000/svg"
 width="900.000000pt" height="900.000000pt" viewBox="0 0 900.000000 900.000000"
 preserveAspectRatio="xMidYMid meet">
<metadata>
Created by potrace 1.11, written by Peter Selinger 2001-2013
</metadata>
<g transform="translate(0.000000,900.000000) scale(0.100000,-0.100000)"
fill="#000000" stroke="none">
<path d="M0 4500 l0 -4500 4500 0 4500 0 0 4500 0 4500 -4500 0 -4500 0 0
-4500z m5398 2805 c197 -58 373 -112 393 -121 42 -18 63 -51 63 -97 -1 -34
-1563 -5445 -1591 -5510 -23 -54 -56 -77 -110 -77 -40 0 -639 168 -770 216
-54 20 -83 56 -83 104 0 32 1545 5398 1586 5507 21 58 55 83 111 83 28 0 183
-41 401 -105z m-2645 -1172 c38 -29 538 -561 564 -600 20 -29 19 -87 -1 -117
-8 -14 -254 -234 -546 -491 -291 -257 -528 -471 -525 -475 3 -5 244 -219 535
-475 292 -257 535 -476 541 -487 16 -29 14 -85 -4 -111 -32 -48 -550 -593
-580 -611 -52 -30 -95 -16 -174 57 -37 34 -428 400 -869 814 -549 515 -805
761 -812 782 -25 73 -53 43 864 904 471 441 870 810 887 820 45 24 78 21 120
-10z m3781 3 c31 -21 1695 -1583 1720 -1614 30 -38 28 -99 -4 -138 -21 -26
-1568 -1480 -1687 -1586 -53 -47 -100 -57 -147 -32 -35 20 -543 555 -577 609
-10 17 -19 47 -19 69 0 49 -15 34 603 576 267 234 484 430 483 435 -1 6 -236
216 -522 467 -285 252 -529 470 -541 485 -28 35 -30 87 -4 128 20 32 521 569
555 596 12 9 28 19 36 22 22 9 79 0 104 -17z"/>
</g>
</svg>
